# xmcd
#
# Track frame offsets: 
#        150
#        13477
#        27007
#        41710
#        56922
#        61210
#        75092
#        89442
#        101182
#        114515
#        126772
#        139160
#        153115
#        166365
#        180585
#        194652
#        209015
#        221630
#        236727
#        251952
#        265797
#        280837
#
# Disc length: 3942 seconds
#
# Revision: 1
# Processed by: cddbd v1.4PL0 Copyright (c) Steve Scherf et al.
# Submitted via: ExactAudioCopy v0.95a4
#
DISCID=470f6416
DTITLE=Billie Holiday - Good Morning Heartache
DYEAR=1900
DGENRE=Blues
TTITLE0=What A Moonlight Can Do 
TTITLE1=Miss Brown to You
TTITLE2=I Cried for You
TTITLE3=Billie's Blues
TTITLE4=I Must Have That Man
TTITLE5=Mean To Me
TTITLE6=Easy Living
TTITLE7=He's Funny That Way
TTITLE8=My Man
TTITLE9=Sugar
TTITLE10=Them There Eyes
TTITLE11=The Man I Love
TTITLE12=All of me
TTITLE13=God Bless the Child
TTITLE14=Strange Fruit
TTITLE15=Fine and Mellow
TTITLE16=I Gotta Right to Sing the Blues
TTITLE17=Lover Man 
TTITLE18=Don't Explain
TTITLE19=Good Morning Heartache
TTITLE20=Ain't Nobody's Business If I Do
TTITLE21=You've Changed
EXTD=
EXTT0=
EXTT1=
EXTT2=
EXTT3=
EXTT4=
EXTT5=
EXTT6=
EXTT7=
EXTT8=
EXTT9=
EXTT10=
EXTT11=
EXTT12=
EXTT13=
EXTT14=
EXTT15=
EXTT16=
EXTT17=
EXTT18=
EXTT19=
EXTT20=
EXTT21=
PLAYORDER=
